<?xml version="1.0" standalone="no"?>
<!DOCTYPE svg PUBLIC "-//W3C//DTD SVG 20010904//EN"
 "http://www.w3.org/TR/2001/REC-SVG-20010904/DTD/svg10.dtd">
<svg version="1.0" xmlns="http://www.w3.org/2000/svg"
 width="278.000000pt" height="78.000000pt" viewBox="0 0 278.000000 78.000000"
 preserveAspectRatio="xMidYMid meet">

<g transform="translate(0.000000,78.000000) scale(0.100000,-0.100000)"
fill="#000000" stroke="none">
<path d="M124 741 c-68 -31 -74 -60 -74 -331 0 -256 6 -288 63 -331 l32 -24
1246 0 1245 0 45 42 44 42 0 263 c0 262 0 263 -24 297 -46 65 30 61 -1313 61
-1171 0 -1225 -1 -1264 -19z m291 -226 c14 -13 25 -33 25 -45 0 -29 -34 -26
-54 5 -13 19 -25 25 -55 25 -48 0 -72 -25 -78 -82 -7 -60 23 -98 77 -98 51 0
70 8 70 31 0 15 -7 19 -40 19 -33 0 -40 3 -40 20 0 18 7 20 65 20 l65 0 0 -49
c0 -33 -5 -53 -16 -62 -26 -21 -145 -24 -183 -4 -55 28 -77 113 -46 179 22 46
60 65 128 66 48 0 62 -4 82 -25z m291 -10 c44 -56 41 -158 -7 -201 -32 -29
-129 -32 -172 -5 -69 42 -72 160 -5 216 29 25 38 27 96 23 57 -4 68 -8 88 -33z
m279 2 c45 -45 54 -95 29 -156 -24 -56 -50 -71 -126 -71 -49 0 -62 4 -89 28
-26 23 -33 38 -37 80 -9 101 34 152 130 152 55 0 63 -3 93 -33z m246 23 c35
-19 51 -67 47 -138 -4 -55 -8 -68 -32 -88 -24 -21 -37 -24 -112 -24 l-84 0 0
130 0 130 81 0 c44 0 89 -5 100 -10z m389 -10 c0 -17 -7 -20 -40 -20 l-40 0 0
-110 0 -110 -30 0 -30 0 0 110 0 110 -40 0 c-33 0 -40 3 -40 20 0 19 7 20 110
20 103 0 110 -1 110 -20z m147 -50 c13 -36 35 -88 48 -117 33 -68 32 -75 -7
-71 -27 2 -34 9 -42 36 -9 32 -11 33 -55 30 -41 -3 -48 -6 -60 -35 -11 -24
-21 -33 -38 -33 -13 0 -23 6 -23 13 0 14 33 105 61 164 10 24 19 49 19 56 0
21 12 28 43 25 26 -3 32 -10 54 -68z m263 50 c0 -17 -7 -20 -40 -20 l-40 0 0
-110 0 -110 -30 0 -30 0 0 110 0 110 -40 0 c-33 0 -40 3 -40 20 0 19 7 20 110
20 103 0 110 -1 110 -20z m204 9 c40 -19 59 -66 54 -138 -6 -84 -26 -104 -111
-109 -73 -5 -108 11 -133 59 -29 56 -10 150 37 183 27 19 116 22 153 5z m281
1 c30 -11 65 -79 64 -125 0 -42 -29 -97 -59 -112 -14 -7 -48 -13 -75 -13 -99
0 -152 71 -125 169 15 58 59 91 120 91 27 0 60 -4 75 -10z"/>
<path d="M554 479 c-13 -15 -19 -36 -19 -69 0 -59 24 -90 70 -90 58 0 82 37
77 118 -4 56 -89 84 -128 41z"/>
<path d="M840 480 c-15 -15 -20 -33 -20 -70 0 -61 24 -90 73 -90 38 0 50 7 66
37 21 41 9 114 -23 135 -22 15 -76 8 -96 -12z"/>
<path d="M1110 410 l0 -90 39 0 c50 0 81 35 81 90 0 55 -31 90 -81 90 l-39 0
0 -90z"/>
<path d="M1693 425 c-11 -34 -11 -35 18 -35 33 0 32 -2 18 39 -14 40 -23 39
-36 -4z"/>
<path d="M2116 484 c-33 -33 -33 -127 1 -151 26 -20 80 -16 103 7 28 28 27 98
-1 134 -24 30 -78 36 -103 10z"/>
<path d="M2395 480 c-9 -10 -20 -38 -22 -62 -7 -57 23 -98 72 -98 58 0 82 36
77 118 -4 55 -89 84 -127 42z"/>
</g>
</svg>
